<svg width="31" height="29" viewBox="0 0 31 29" fill="none" xmlns="http://www.w3.org/2000/svg">
<path d="M30.258 28.0512H0.25V0.949219H30.258V28.0512Z" fill="#E21F26" stroke="white" stroke-width="0.5"/>
<path d="M14.0439 18.307C15.1369 19.0241 16.3965 19.447 17.7008 19.535H17.7629C18.435 19.5786 19.0985 19.364 19.6178 18.935C19.7974 18.7664 19.9403 18.5627 20.0377 18.3364C20.1351 18.1102 20.1848 17.8663 20.1839 17.62C20.1679 16.073 18.5448 15.355 17.0838 14.536C15.5938 13.719 14.2358 12.851 14.2368 11.315V11.27C14.2628 9.28802 16.0049 8.29102 18.3219 8.29002H18.3629C19.4428 8.33635 20.5151 8.49351 21.5628 8.75902L21.5978 8.76602V8.27302H21.5768C20.5268 8.00967 19.4525 7.85486 18.3709 7.81102H18.2788C17.1901 7.76874 16.1113 8.03348 15.1658 8.57502C14.7218 8.86962 14.3594 9.27153 14.112 9.74351C13.8647 10.2155 13.7404 10.7423 13.7508 11.275V11.297C13.7508 13.185 15.3648 14.154 16.8508 14.97C18.3508 15.778 19.7068 16.495 19.7028 17.57V17.62C19.6718 18.307 19.3089 19.048 17.7169 19.056C16.4145 18.9481 15.1626 18.5035 14.0838 17.766H14.0749L14.0518 17.789V18.316L14.0439 18.307Z" fill="white"/>
<path d="M18.3979 9.01636C19.4909 9.08347 20.5674 9.31542 21.5909 9.70436V9.32236C20.5661 8.94857 19.4906 8.73179 18.4009 8.67936H18.3339C17.5333 8.64206 16.7387 8.83464 16.0439 9.23436C15.7144 9.44313 15.4434 9.73229 15.2564 10.0746C15.0694 10.417 14.9725 10.8013 14.9749 11.1914C14.9799 12.7914 16.5959 13.5834 18.0689 14.4074C19.5629 15.2234 20.9259 16.0544 20.9229 17.4364V17.4804C20.8949 18.8734 19.8499 19.9324 17.7099 19.9344H17.6939C16.4319 19.8604 15.1981 19.53 14.0679 18.9634L14.0439 18.9534V19.3604H14.0519C15.1932 19.9023 16.4309 20.2113 17.6929 20.2694H17.7829C18.7047 20.326 19.6197 20.0802 20.3889 19.5694C20.705 19.3214 20.9596 19.004 21.133 18.6417C21.3065 18.2794 21.394 17.882 21.3889 17.4804V17.4704C21.3889 15.7164 19.7759 14.8194 18.2969 14.0004C16.7969 13.1864 15.4379 12.4224 15.4409 11.2394V11.1914C15.4589 9.75036 16.7269 9.01136 18.4019 9.01036L18.3979 9.01636Z" fill="white"/>
<path d="M19.52 13.4528C18.02 12.6528 16.652 11.9718 16.661 11.1758V11.1268C16.681 10.2448 17.324 9.89178 18.336 9.87978C19.4531 9.97795 20.5433 10.2771 21.554 10.7628L21.566 10.7688L21.592 10.7418V10.2528L21.576 10.2468C20.5594 9.76525 19.4628 9.4754 18.341 9.39178H18.301C17.787 9.37068 17.2788 9.50672 16.844 9.78178C16.6309 9.93098 16.4581 10.1308 16.3414 10.3633C16.2246 10.5958 16.1674 10.8537 16.175 11.1138C16.214 12.4488 17.823 13.0378 19.281 13.8688C20.762 14.6898 22.125 15.6388 22.124 17.2958V17.3398C22.094 19.4398 20.393 20.6508 17.724 20.6538H17.683C16.4549 20.5876 15.2399 20.3686 14.066 20.0018L14.041 19.9948V20.4948H14.049C15.2263 20.8611 16.4454 21.0762 17.677 21.1348H17.789C18.9835 21.1881 20.1663 20.88 21.183 20.2508C21.6352 19.9168 22.0009 19.4794 22.2497 18.9753C22.4984 18.4712 22.623 17.9149 22.613 17.3528V17.3208C22.613 15.3428 21.006 14.2758 19.52 13.4538V13.4528Z" fill="white"/>
<path d="M4.31894 18.3069C5.41204 19.0239 6.67161 19.4469 7.97594 19.5349H8.03794C8.71013 19.5785 9.37361 19.3639 9.89294 18.9349C10.0709 18.766 10.2125 18.5625 10.309 18.3369C10.4055 18.1112 10.4548 17.8683 10.4539 17.6229C10.4379 16.0759 8.81694 15.3579 7.35394 14.5389C5.86294 13.7219 4.50694 12.8539 4.50794 11.3179V11.2729C4.53494 9.2909 6.27594 8.2939 8.59294 8.2929H8.63594C9.71585 8.33923 10.7882 8.49639 11.8359 8.7619L11.8709 8.7689V8.2759H11.8489C10.8009 8.0128 9.72861 7.85799 8.64894 7.8139H8.55394C7.46551 7.77187 6.38717 8.0366 5.44194 8.5779C4.99812 8.87271 4.6358 9.27466 4.38847 9.74659C4.14115 10.2185 4.0168 10.7452 4.02694 11.2779V11.2999C4.02694 13.1879 5.64194 14.1569 7.12694 14.9729C8.62694 15.7809 9.98394 16.4979 9.97894 17.5729V17.6229C9.94694 18.3099 9.58594 19.0509 7.99194 19.0589C6.69024 18.951 5.43897 18.5064 4.36094 17.7689H4.35194L4.32794 17.7919V18.3189L4.31894 18.3069Z" fill="white"/>
<path d="M8.67294 9.01646C9.76583 9.0838 10.8423 9.31575 11.8659 9.70446V9.32246C10.8414 8.94886 9.76624 8.73209 8.67694 8.67946H8.60494C7.80456 8.64168 7.01014 8.8343 6.31594 9.23446C5.98623 9.44312 5.71503 9.73223 5.52785 10.0746C5.34066 10.4169 5.24365 10.8013 5.24594 11.1915C5.25194 12.7915 6.86794 13.5835 8.34094 14.4075C9.83494 15.2235 11.1969 16.0545 11.1959 17.4365V17.4805C11.1669 18.8735 10.1219 19.9325 7.98194 19.9345H7.96494C6.70287 19.8605 5.4691 19.5301 4.33894 18.9635L4.31494 18.9515V19.3585H4.32294C5.46409 19.9006 6.70191 20.2096 7.96394 20.2675H8.05394C8.97562 20.3238 9.89053 20.078 10.6599 19.5675C10.9758 19.3194 11.2303 19.0019 11.4037 18.6397C11.5771 18.2774 11.6648 17.8801 11.6599 17.4785V17.4685C11.6599 15.7145 10.0469 14.8175 8.56794 13.9985C7.06794 13.1845 5.70694 12.4205 5.71094 11.2375V11.1895C5.72894 9.74846 6.99694 9.00946 8.67194 9.00846L8.67294 9.01646Z" fill="white"/>
<path d="M9.7949 13.4527C8.2949 12.6527 6.9259 11.9717 6.9369 11.1757V11.1267C6.9579 10.2447 7.6019 9.89166 8.6129 9.87966C9.73022 9.97825 10.8206 10.2774 11.8319 10.7627L11.8429 10.7687L11.8709 10.7417V10.2527H11.8539C10.8369 9.77127 9.73993 9.48143 8.6179 9.39766H8.5779C8.06387 9.37644 7.55559 9.51249 7.1209 9.78766C6.90795 9.93713 6.73532 10.137 6.61841 10.3694C6.5015 10.6018 6.44395 10.8596 6.4509 11.1197C6.4909 12.4547 8.09989 13.0437 9.55689 13.8747C11.0389 14.6957 12.4019 15.6447 12.4009 17.3017V17.3457C12.3709 19.4457 10.6719 20.6567 8.00089 20.6597H7.95889C6.73051 20.5933 5.51517 20.3743 4.34089 20.0077L4.31689 20.0007V20.5007H4.32389C5.50189 20.8669 6.72167 21.082 7.9539 21.1407H8.06389C9.25842 21.1943 10.4413 20.8862 11.4579 20.2567C11.9112 19.9223 12.2777 19.4841 12.5265 18.9788C12.7753 18.4735 12.8993 17.9158 12.8879 17.3527V17.3207C12.8879 15.3427 11.2819 14.2757 9.7949 13.4537V13.4527Z" fill="white"/>
<path d="M25.0339 21.009H25.4729V8.00195H25.0339V21.009Z" fill="white"/>
<path d="M24.0249 8.02895C24.1549 10.768 24.0309 20.535 24.0249 20.992L24.0429 21.01H24.5219V8.00195H24.0539L24.0269 8.02895H24.0249Z" fill="white"/>
<path d="M26.4831 8.02895C26.3531 10.768 26.4831 20.535 26.4831 20.992L26.4641 21.01H25.9871V8.00195H26.4541L26.4801 8.02895H26.4831Z" fill="white"/>
</svg>
